<?xml version="1.0" encoding="UTF-8"?>
<svg width="5px" height="9px" viewBox="0 0 5 9" version="1.1" xmlns="http://www.w3.org/2000/svg" xmlns:xlink="http://www.w3.org/1999/xlink">
    <!-- Generator: Sketch 47.1 (45422) - http://www.bohemiancoding.com/sketch -->
    <title>icon_right</title>
    <desc>Created with Sketch.</desc>
    <defs></defs>
    <g id="Page-1" stroke="none" stroke-width="1" fill="none" fill-rule="evenodd">
        <g id="首页_悬停" transform="translate(-1395.000000, -700.000000)" fill="#8492B4">
            <g id="Project-Header" transform="translate(1335.000000, 696.000000)">
                <g id="More-Dropdown">
                    <path d="M58.846251,10.6288172 L58.846251,5.7348516 C58.846251,5.45893355 58.6225753,5.23525778 58.3466572,5.23525778 L58.3466572,5.23525778 L58.3458449,5.23525778 L58.3458449,5.23525778 C58.0699268,5.23525778 57.846251,5.45893355 57.846251,5.7348516 L57.846251,5.7348516 L57.846251,10.735664 C57.846251,10.8053786 57.8605304,10.8717582 57.8863238,10.9320375 C57.8605304,10.9923167 57.846251,11.0586963 57.846251,11.128411 L57.846251,11.1292234 C57.846251,11.4051414 58.0699268,11.6288172 58.3458449,11.6288172 L63.3466572,11.6288172 C63.6225753,11.6288172 63.846251,11.4051414 63.846251,11.1292234 L63.846251,11.128411 C63.846251,10.852493 63.6225753,10.6288172 63.3466572,10.6288172 L58.846251,10.6288172 Z" id="icon_right" transform="translate(60.846251, 8.432037) scale(1, -1) rotate(-135.000000) translate(-60.846251, -8.432037) "></path>
                </g>
            </g>
        </g>
    </g>
</svg>