<?xml version="1.0" encoding="UTF-8"?>
<svg width="30px" height="30px" viewBox="0 0 30 30" version="1.1" xmlns="http://www.w3.org/2000/svg" xmlns:xlink="http://www.w3.org/1999/xlink">
    <!-- Generator: Sketch 47.1 (45422) - http://www.bohemiancoding.com/sketch -->
    <title>icon_wechat_s</title>
    <desc>Created with Sketch.</desc>
    <defs>
        <polygon id="path-1" points="0 0 0 14 17 14 17 0"></polygon>
    </defs>
    <g id="Page-1" stroke="none" stroke-width="1" fill="none" fill-rule="evenodd">
        <g id="首页_悬停" transform="translate(-1322.000000, -2208.000000)">
            <g id="icon_wechat_s" transform="translate(1322.000000, 2208.000000)">
                <circle id="Oval" fill="#42B548" cx="15" cy="15" r="15"></circle>
                <g id="微信-(1)" opacity="0.6" transform="translate(7.000000, 8.000000)">
                    <mask id="mask-2" fill="white">
                        <use xlink:href="#path-1"></use>
                    </mask>
                    <g id="Clip-2"></g>
                    <path d="M17,9.20798778 C17,6.88866514 14.6486139,5 12.0033564,5 C9.20078316,5 7,6.88866514 7,9.20798778 C7,11.5332359 9.20078316,13.4151991 12.0033564,13.4151991 C12.5896283,13.4151991 13.182613,13.2676963 13.7684913,13.1268137 L15.3837277,14 L14.9417395,12.5486534 C16.120271,11.6751606 17,10.5124854 17,9.20798778 Z M10.3803506,8.48191603 C10.0879501,8.48191603 9.79482451,8.1932241 9.79482451,7.90342881 C9.79482451,7.6153703 10.0879501,7.32596323 10.3803506,7.32596323 C10.823789,7.32596323 11.1172461,7.6153703 11.1172461,7.90342881 C11.1172461,8.1932241 10.823789,8.48191603 10.3803506,8.48191603 Z M13.6189243,8.48191603 C13.3261924,8.48191603 13.033709,8.1932241 13.033709,7.90342881 C13.033709,7.6153703 13.3261924,7.32596323 13.6189243,7.32596323 C14.0616169,7.32596323 14.3551568,7.6153703 14.3551568,7.90342881 C14.3551568,8.1932241 14.0545726,8.48191603 13.6189243,8.48191603 Z" id="Fill-1" fill="#FFFFFF" mask="url(#mask-2)"></path>
                    <path d="M11.4248026,4.19338393 C11.616384,4.19338393 11.808707,4.2068588 12,4.22664548 C11.4845842,1.79938316 8.91172835,0 5.97363181,0 C2.69233674,0 0,2.25331398 0,5.11999411 C0,6.77370749 0.893366751,8.13331987 2.38825791,9.18718349 L1.79301655,11 L3.88312848,9.94046821 C4.63060496,10.0868647 5.23252077,10.2406319 5.97363181,10.2406319 C6.15855936,10.2406319 6.34451693,10.2339048 6.52983589,10.2147618 C6.41066401,9.81402451 6.34451693,9.388393 6.34451693,8.95433191 C6.34420792,6.32689821 8.58721417,4.19338393 11.4248026,4.19338393 Z M8.209325,2.55981019 C8.6589851,2.55981019 8.95638948,2.85997384 8.95638948,3.3134894 C8.95638948,3.76638209 8.6585731,4.06646269 8.209325,4.06646269 C7.7592529,4.06646269 7.31000481,3.76638209 7.31000481,3.3134894 C7.31667926,2.85955859 7.76561835,2.55981019 8.209325,2.55981019 Z M4.02868914,4.06581905 C3.57872004,4.06581905 3.12936895,3.76596684 3.12936895,3.31276272 C3.12936895,2.85922639 3.57902905,2.55947799 4.02868914,2.55947799 C4.47909085,2.55947799 4.77690723,2.85955859 4.77690723,3.31276272 C4.77649523,3.75965504 4.47909085,4.06581905 4.02868914,4.06581905 Z" id="Fill-3" fill="#FFFFFF" mask="url(#mask-2)"></path>
                </g>
            </g>
        </g>
    </g>
</svg>