<?xml version="1.0" encoding="UTF-8"?>
<svg width="46px" height="33px" viewBox="0 0 46 33" version="1.1" xmlns="http://www.w3.org/2000/svg" xmlns:xlink="http://www.w3.org/1999/xlink">
    <!-- Generator: Sketch 47.1 (45422) - http://www.bohemiancoding.com/sketch -->
    <title>icon_address</title>
    <desc>Created with Sketch.</desc>
    <defs>
        <linearGradient x1="35.198383%" y1="95.9222124%" x2="16.386944%" y2="13.9604162%" id="linearGradient-1">
            <stop stop-color="#FBD249" offset="0%"></stop>
            <stop stop-color="#F5A623" offset="100%"></stop>
        </linearGradient>
    </defs>
    <g id="Page-1" stroke="none" stroke-width="1" fill="none" fill-rule="evenodd">
        <g id="地址" transform="translate(-196.000000, -144.000000)">
            <g id="icon_address" transform="translate(196.000000, 144.000000)">
                <rect id="Rectangle-10-Copy-3" fill="#F5A623" opacity="0.4" x="35.3987315" y="11" width="6.64439746" height="1.09152288" rx="0.54576144"></rect>
                <rect id="Rectangle-10-Copy-8" fill="#F5A623" opacity="0.4" x="8" y="31" width="7.53488372" height="1.23780945" rx="0.618904726"></rect>
                <rect id="Rectangle-10-Copy-7" fill="#F5A623" opacity="0.4" x="27" y="0" width="3.76744186" height="1.23780945" rx="0.618904726"></rect>
                <rect id="Rectangle-10-Copy-4" fill="#F5A623" opacity="0.4" x="32.9534884" y="20.2805701" width="7.53488372" height="1.23780945" rx="0.618904726"></rect>
                <rect id="Rectangle-10-Copy" fill="#F5A623" opacity="0.4" transform="translate(3.767442, 28.500000) scale(1, -1) translate(-3.767442, -28.500000) " x="0" y="28" width="7.53488372" height="1" rx="0.5"></rect>
                <rect id="Rectangle-10-Copy-2" fill="#F5A623" opacity="0.4" x="35.9534884" y="15.5671418" width="10.0465116" height="1.23780945" rx="0.618904726"></rect>
                <g id="地址" transform="translate(8.000000, 1.000000)" stroke-width="2" stroke="url(#linearGradient-1)">
                    <g id="Group-3">
                        <path d="M12.8,1 C6.30155043,1 1,6.47459359 1,13.2177933 C1,16.3069833 3.06311135,20.5847742 6.3169146,24.7945882 C8.95339995,28.2057081 12.0589146,31 12.8,31 C13.5412112,31 16.6467929,28.2063306 19.2830545,24.7959567 C22.5369787,20.5865497 24.6,16.3086474 24.6,13.2177933 C24.6,6.47459359 19.2984496,1 12.8,1 Z" id="Fill-1"></path>
                    </g>
                </g>
                <path d="M21,10 C19.3431458,10 18,11.3431458 18,13" id="Oval-10" stroke="#FACD44" stroke-width="1.4" stroke-linecap="round"></path>
                <circle id="Oval-11" stroke="#FBB84A" stroke-width="1.4" stroke-linecap="round" stroke-dasharray="36" transform="translate(20.500000, 13.500000) scale(-1, 1) translate(-20.500000, -13.500000) " cx="20.5" cy="13.5" r="6.5"></circle>
            </g>
        </g>
    </g>
</svg>