<?xml version="1.0" encoding="UTF-8"?>
<svg width="1145px" height="485px" viewBox="0 0 1145 485" version="1.1" xmlns="http://www.w3.org/2000/svg" xmlns:xlink="http://www.w3.org/1999/xlink">
    <!-- Generator: Sketch 47.1 (45422) - http://www.bohemiancoding.com/sketch -->
    <title>img_404</title>
    <desc>Created with Sketch.</desc>
    <defs>
        <ellipse id="path-1" cx="3.12210906" cy="61.2331304" rx="3" ry="1.5"></ellipse>
        <filter x="-75.0%" y="-150.0%" width="250.0%" height="400.0%" filterUnits="objectBoundingBox" id="filter-2">
            <feMorphology radius="0.5" operator="dilate" in="SourceAlpha" result="shadowSpreadOuter1"></feMorphology>
            <feOffset dx="0" dy="0" in="shadowSpreadOuter1" result="shadowOffsetOuter1"></feOffset>
            <feGaussianBlur stdDeviation="1" in="shadowOffsetOuter1" result="shadowBlurOuter1"></feGaussianBlur>
            <feColorMatrix values="0 0 0 0 1   0 0 0 0 1   0 0 0 0 1  0 0 0 0.467985734 0" type="matrix" in="shadowBlurOuter1"></feColorMatrix>
        </filter>
        <linearGradient x1="50%" y1="3.4239477%" x2="50%" y2="100%" id="linearGradient-3">
            <stop stop-color="#2097F0" stop-opacity="0.178470335" offset="0%"></stop>
            <stop stop-color="#FFFFFF" offset="100%"></stop>
        </linearGradient>
        <ellipse id="path-4" cx="3.12210906" cy="135.23313" rx="3" ry="1.5"></ellipse>
        <filter x="-75.0%" y="-150.0%" width="250.0%" height="400.0%" filterUnits="objectBoundingBox" id="filter-5">
            <feMorphology radius="0.5" operator="dilate" in="SourceAlpha" result="shadowSpreadOuter1"></feMorphology>
            <feOffset dx="0" dy="0" in="shadowSpreadOuter1" result="shadowOffsetOuter1"></feOffset>
            <feGaussianBlur stdDeviation="1" in="shadowOffsetOuter1" result="shadowBlurOuter1"></feGaussianBlur>
            <feColorMatrix values="0 0 0 0 1   0 0 0 0 1   0 0 0 0 1  0 0 0 0.467985734 0" type="matrix" in="shadowBlurOuter1"></feColorMatrix>
        </filter>
        <linearGradient x1="29.0265497%" y1="3.12300719%" x2="69.9787974%" y2="78.3736091%" id="linearGradient-6">
            <stop stop-color="#249AF2" offset="0%"></stop>
            <stop stop-color="#FFFFFF" offset="100%"></stop>
        </linearGradient>
        <path d="M26.8619766,8.85517343 C27.7839834,9.08602445 28.7696556,9.66315851 29.8189932,10.5865756 C30.8683308,11.5099927 33.8872766,9.76313039 38.8758305,5.34598869 C40.0913694,4.53682708 40.7774265,4.85287003 40.9340018,6.29411754 C41.1688648,8.45598882 35.524423,19.2245859 34.0264128,20.5485764 C32.9370771,21.511367 32.39859,23.1358998 32.39859,26.5247633 C32.39859,29.9136269 33.2024077,37.114246 33.2024077,38.6752902 C33.2024077,41.8139256 32.977804,52.7640147 29.236789,54.0373346 C28.1160749,54.4187892 25.6780007,54.6228025 24.8257794,53.7767137 C22.8872832,51.8521668 23.7801281,49.5298172 23.9571724,45.7141162 C24.2120507,40.2209179 18.3976226,43.0086148 18.0847,45.7141162 C17.7717775,48.4196176 18.2440423,51.9556117 16.3283749,52.9952799 C14.4127075,54.0349481 11.0457675,53.8102888 10.3450194,51.7211002 C10.0175806,50.7448847 9.24191844,48.851918 8.42252949,41.904256 C7.99114639,38.2465255 8.88594215,33.6114568 8.9530248,30.955901 C9.01517458,28.495619 8.89842219,23.7382481 7.95957631,20.848789 C7.30641162,18.8385627 3.81152836,15.1453501 1.40155524,7.59342134 C0.35557096,4.31570893 -1.02915968e-12,2.56147869 -5.68434189e-13,1.38545576 C1.61449562e-13,-0.477751812 2.02399639,-0.0800554023 2.79379297,0.402239557 C4.14380028,1.24804966 6.05044037,3.90262876 7.31634785,5.86290537 C9.58229269,9.37175474 13.5483309,10.242174 14.8997704,8.85517343 C16.3040661,7.41392592 20.2914682,7.41392592 26.8619766,8.85517343 Z" id="path-7"></path>
        <linearGradient x1="68.1149082%" y1="65.9267872%" x2="24.1911758%" y2="33.8820845%" id="linearGradient-9">
            <stop stop-color="#252E3E" offset="0%"></stop>
            <stop stop-color="#000000" offset="100%"></stop>
        </linearGradient>
        <path d="M136.5,115 C104.743627,115 79,89.2563731 79,57.5 C79,25.7436269 104.743627,0 136.5,0 C168.256373,0 194,25.7436269 194,57.5 C194,89.2563731 168.256373,115 136.5,115 Z M137.004386,101.885965 C161.239513,101.885965 180.885965,82.2395128 180.885965,58.004386 C180.885965,33.7692591 161.239513,14.122807 137.004386,14.122807 C112.769259,14.122807 93.122807,33.7692591 93.122807,58.004386 C93.122807,82.2395128 112.769259,101.885965 137.004386,101.885965 Z" id="path-10"></path>
        <filter x="-14.3%" y="-14.3%" width="128.7%" height="128.7%" filterUnits="objectBoundingBox" id="filter-11">
            <feMorphology radius="1" operator="dilate" in="SourceAlpha" result="shadowSpreadOuter1"></feMorphology>
            <feOffset dx="0" dy="0" in="shadowSpreadOuter1" result="shadowOffsetOuter1"></feOffset>
            <feGaussianBlur stdDeviation="4.5" in="shadowOffsetOuter1" result="shadowBlurOuter1"></feGaussianBlur>
            <feColorMatrix values="0 0 0 0 1   0 0 0 0 1   0 0 0 0 1  0 0 0 0.467985734 0" type="matrix" in="shadowBlurOuter1"></feColorMatrix>
        </filter>
        <circle id="path-12" cx="136.5" cy="57.5" r="39.5"></circle>
        <filter x="-22.2%" y="-22.2%" width="144.3%" height="144.3%" filterUnits="objectBoundingBox" id="filter-13">
            <feMorphology radius="2" operator="dilate" in="SourceAlpha" result="shadowSpreadOuter1"></feMorphology>
            <feOffset dx="0" dy="0" in="shadowSpreadOuter1" result="shadowOffsetOuter1"></feOffset>
            <feMorphology radius="2" operator="erode" in="SourceAlpha" result="shadowInner"></feMorphology>
            <feOffset dx="0" dy="0" in="shadowInner" result="shadowInner"></feOffset>
            <feComposite in="shadowOffsetOuter1" in2="shadowInner" operator="out" result="shadowOffsetOuter1"></feComposite>
            <feGaussianBlur stdDeviation="4.5" in="shadowOffsetOuter1" result="shadowBlurOuter1"></feGaussianBlur>
            <feColorMatrix values="0 0 0 0 1   0 0 0 0 1   0 0 0 0 1  0 0 0 0.467985734 0" type="matrix" in="shadowBlurOuter1"></feColorMatrix>
        </filter>
        <rect id="path-14" x="0" y="3.33333333" width="268.333333" height="1.66666667" rx="0.833333333"></rect>
        <filter x="-1.1%" y="-180.0%" width="102.2%" height="460.0%" filterUnits="objectBoundingBox" id="filter-15">
            <feGaussianBlur stdDeviation="1" in="SourceGraphic"></feGaussianBlur>
        </filter>
        <rect id="path-16" x="0" y="3.33333333" width="268.333333" height="1.66666667" rx="0.833333333"></rect>
        <filter x="-1.1%" y="-180.0%" width="102.2%" height="460.0%" filterUnits="objectBoundingBox" id="filter-17">
            <feGaussianBlur stdDeviation="1" in="SourceGraphic"></feGaussianBlur>
        </filter>
        <ellipse id="path-18" cx="135.833333" cy="1.66666667" rx="135.833333" ry="1.66666667"></ellipse>
        <filter x="-1.7%" y="-135.0%" width="103.3%" height="370.0%" filterUnits="objectBoundingBox" id="filter-19">
            <feMorphology radius="0.5" operator="dilate" in="SourceAlpha" result="shadowSpreadOuter1"></feMorphology>
            <feOffset dx="0" dy="0" in="shadowSpreadOuter1" result="shadowOffsetOuter1"></feOffset>
            <feGaussianBlur stdDeviation="1" in="shadowOffsetOuter1" result="shadowBlurOuter1"></feGaussianBlur>
            <feColorMatrix values="0 0 0 0 1   0 0 0 0 1   0 0 0 0 1  0 0 0 0.467985734 0" type="matrix" in="shadowBlurOuter1"></feColorMatrix>
        </filter>
    </defs>
    <g id="Page-1" stroke="none" stroke-width="1" fill="none" fill-rule="evenodd">
        <g id="404页面" transform="translate(-195.000000, -204.000000)">
            <g id="img_404" transform="translate(195.000000, 204.000000)">
                <g id="点1" transform="translate(295.000000, 28.000000)" fill="#FFFFFF">
                    <circle id="Oval-4" cx="210" cy="2" r="2"></circle>
                    <circle id="Oval-4-Copy-2" cx="244" cy="110" r="2"></circle>
                    <circle id="Oval-4-Copy-3" cx="244" cy="110" r="2"></circle>
                    <circle id="Oval-4-Copy-14" cx="562" cy="148" r="2"></circle>
                    <circle id="Oval-4-Copy-20" cx="587" cy="344" r="2"></circle>
                    <circle id="Oval-4-Copy-21" cx="273" cy="318" r="2"></circle>
                    <circle id="Oval-4-Copy-22" cx="508" cy="301" r="2"></circle>
                    <circle id="Oval-4-Copy-23" cx="597" cy="280" r="2"></circle>
                    <circle id="Oval-4-Copy-4" cx="90" cy="270" r="2"></circle>
                    <circle id="Oval-4-Copy-13" cx="2" cy="318" r="2"></circle>
                    <circle id="Oval-4-Copy-24" cx="50" cy="124" r="2"></circle>
                </g>
                <g id="流星" transform="translate(690.000000, 107.000000)">
                    <g id="Oval-4-Copy" transform="translate(3.122109, 61.233130) rotate(-48.000000) translate(-3.122109, -61.233130) ">
                        <use fill="black" fill-opacity="1" filter="url(#filter-2)" xlink:href="#path-1"></use>
                        <use fill="#FFFFFF" fill-rule="evenodd" xlink:href="#path-1"></use>
                    </g>
                    <rect id="Rectangle-3" fill="url(#linearGradient-3)" transform="translate(29.497071, 30.844442) rotate(41.000000) translate(-29.497071, -30.844442) " x="28.9970707" y="-9.15555776" width="1" height="80" rx="0.5"></rect>
                </g>
                <g id="流星-copy" transform="translate(659.000000, 33.000000)">
                    <g id="Oval-4-Copy" transform="translate(3.122109, 135.233130) rotate(-48.000000) translate(-3.122109, -135.233130) ">
                        <use fill="black" fill-opacity="1" filter="url(#filter-5)" xlink:href="#path-4"></use>
                        <use fill="#FFFFFF" fill-rule="evenodd" xlink:href="#path-4"></use>
                    </g>
                    <rect id="Rectangle-3" fill="url(#linearGradient-3)" opacity="0.567651721" transform="translate(61.422667, 68.251892) rotate(41.000000) translate(-61.422667, -68.251892) " x="60.9226674" y="-21.7481083" width="1" height="180" rx="0.5"></rect>
                </g>
                <g opacity="0.382982337" fill="#FFFFFF">
                    <circle id="Oval-4-Copy-5" cx="302.5" cy="1.5" r="1.5"></circle>
                    <circle id="Oval-4-Copy-28" cx="564.5" cy="4.5" r="1.5"></circle>
                    <circle id="Oval-4-Copy-29" cx="564.5" cy="4.5" r="1.5"></circle>
                    <circle id="Oval-4-Copy-30" cx="912.5" cy="217.5" r="1.5"></circle>
                    <circle id="Oval-4-Copy-31" cx="996.5" cy="6.5" r="1.5"></circle>
                    <circle id="Oval-4-Copy-32" cx="974.5" cy="397.5" r="1.5"></circle>
                    <circle id="Oval-4-Copy-33" cx="788.5" cy="483.5" r="1.5"></circle>
                    <circle id="Oval-4-Copy-6" cx="173.5" cy="42.5" r="1.5"></circle>
                    <circle id="Oval-4-Copy-7" cx="217.5" cy="139.5" r="1.5"></circle>
                    <circle id="Oval-4-Copy-8" cx="741.5" cy="187.5" r="1.5"></circle>
                    <circle id="Oval-4-Copy-9" cx="741.5" cy="187.5" r="1.5"></circle>
                    <circle id="Oval-4-Copy-10" cx="851.5" cy="411.5" r="1.5"></circle>
                    <circle id="Oval-4-Copy-11" cx="842.5" cy="110.5" r="1.5"></circle>
                    <circle id="Oval-4-Copy-12" cx="985.5" cy="297.5" r="1.5"></circle>
                    <circle id="Oval-4-Copy-34" cx="1143.5" cy="275.5" r="1.5"></circle>
                    <circle id="Oval-4-Copy-15" cx="1039.5" cy="199.5" r="1.5"></circle>
                    <circle id="Oval-4-Copy-16" cx="1104.5" cy="91.5" r="1.5"></circle>
                    <circle id="Oval-4-Copy-17" cx="63.5" cy="363.5" r="1.5"></circle>
                    <circle id="Oval-4-Copy-18" cx="63.5" cy="363.5" r="1.5"></circle>
                    <circle id="Oval-4-Copy-19" cx="26.5" cy="243.5" r="1.5"></circle>
                    <circle id="Oval-4-Copy-25" cx="1.5" cy="153.5" r="1.5"></circle>
                    <circle id="Oval-4-Copy-26" cx="139.5" cy="278.5" r="1.5"></circle>
                    <circle id="Oval-4-Copy-27" cx="220.5" cy="241.5" r="1.5"></circle>
                </g>
                <g id="Group-5" transform="translate(379.000000, 116.000000)">
                    <path d="M60.8,50 L65.12,50 L65.12,132.24 L86.24,132.24 L86.24,136.08 L65.12,136.08 L65.12,164.24 L61.28,164.24 L61.28,136.08 L0,136.08 L0,132.08 L60.8,50 Z M60.8,56.24 L4.48,132.24 L61.28,132.24 L61.28,56.24 L60.8,56.24 Z" id="404" fill="#FFFFFF"></path>
                    <path d="M405.8,50 L410.12,50 L410.12,132.24 L431.24,132.24 L431.24,136.08 L410.12,136.08 L410.12,164.24 L406.28,164.24 L406.28,136.08 L345,136.08 L345,132.08 L405.8,50 Z M405.8,56.24 L349.48,132.24 L406.28,132.24 L406.28,56.24 L405.8,56.24 Z" id="404-copy" fill="#FFFFFF"></path>
                    <g id="Group-4" transform="translate(68.000000, 0.000000)">
                        <g id="Group-3">
                            <g id="人物" transform="translate(147.170406, 111.005883) rotate(25.000000) translate(-147.170406, -111.005883) translate(122.670406, 75.505883)">
                                <path d="M43.4885486,42.3491332 L43.4885486,17.6204819 C43.4885486,7.88895847 35.5995901,-1.78765186e-15 25.8680667,0 L25.8680667,0 L25.8680667,0 C16.1365432,1.78765186e-15 8.24758473,7.88895847 8.24758473,17.6204819 L8.24758473,17.6204819 L8.24758473,42.2891856 L8.20089928,42.2891566 L3.54959078,58.5822082 C3.49861771,58.7607615 3.47275864,58.9455436 3.47275864,59.1312304 C3.47275864,60.2357999 4.36818914,61.1312304 5.47275864,61.1312304 L45.0934894,61.1312304 C45.2364646,61.1312304 45.3790275,61.1158991 45.5187334,61.0854994 C46.5980464,60.8506436 47.2826143,59.7852994 47.0477585,58.7059864 L43.4885486,42.3491332 Z" id="Combined-Shape" fill="#26364B"></path>
                                <g id="Rectangle-6" transform="translate(4.000000, 16.000000)">
                                    <mask id="mask-8" fill="white">
                                        <use xlink:href="#path-7"></use>
                                    </mask>
                                    <use id="Mask" fill="url(#linearGradient-6)" xlink:href="#path-7"></use>
                                    <path d="M0.470433908,0.331479681 L3.48157735,0.173760882 L6.97990328,2.98637144 C4.43504675,2.20833072 2.60949002,1.80587735 1.50323309,1.77901134 C0.816211372,1.76232667 0.123953876,1.79367054 -0.573539394,1.87304296 L-0.573543085,1.87301052 C-0.781382571,1.89666197 -0.969043046,1.74734806 -0.99269449,1.53950857 C-1.00680239,1.41553397 -0.958945918,1.29256451 -0.864746529,1.21074025 L-0.133035294,0.57515512 L-0.133035294,0.57515512 C0.0353235759,0.42891383 0.2477342,0.343144329 0.470433908,0.331479681 Z" fill="#16507C" mask="url(#mask-8)" transform="translate(2.992388, 1.580066) rotate(-42.000000) translate(-2.992388, -1.580066) "></path>
                                    <path d="M37.0391448,6.00370403 L40.0502883,5.84598523 L43.5486142,8.65859579 C41.0037577,7.88055507 39.1782009,7.4781017 38.071944,7.45123569 C37.3849223,7.43455102 36.6926648,7.4658949 35.9951715,7.54526731 L35.9951678,7.54523488 C35.7873284,7.56888632 35.5996679,7.41957241 35.5760164,7.21173293 C35.5619085,7.08775832 35.609765,6.96478887 35.7039644,6.8829646 L36.4356756,6.24737947 L36.4356756,6.24737947 C36.6040345,6.10113818 36.8164451,6.01536868 37.0391448,6.00370403 Z" id="Rectangle-6-Copy" fill="#16507C" mask="url(#mask-8)" transform="translate(39.561099, 7.252291) rotate(26.000000) translate(-39.561099, -7.252291) "></path>
                                </g>
                                <path d="M0.704773391,16.5042205 C-0.226596312,15.733866 -0.0111909562,13.7741552 0.80401806,13.6867845 C1.34749074,13.6285374 1.61922708,13.9139986 1.61922708,14.5431682 C2.08877646,13.8002752 2.38624887,13.2693335 2.51164429,12.9503431 C2.90606522,11.9469852 4.32535573,11.9252599 4.98784101,12.1706258 C7.05056684,12.9346012 7.55179676,15.8713329 6.10216006,17.2717316 C4.65252337,18.6721303 3.44502721,19.4178408 3.00602868,18.716177 C2.56703016,18.0145131 1.63614309,17.274575 0.704773391,16.5042205 Z" id="Path-3-Copy" fill="#F5A623" transform="translate(3.512692, 15.512210) scale(-1, 1) translate(-3.512692, -15.512210) "></path>
                                <path d="M43.0443103,21.7965603 C41.9761148,20.9710074 41.6376064,17.7741552 42.4528154,17.6867845 C42.996288,17.6285374 43.2680244,17.9139986 43.2680244,18.5431682 C43.867763,17.8743217 44.23033,17.3804032 44.3557254,17.0614128 C44.7501463,16.0580549 45.7746216,15.9905601 46.2908671,16.0008543 C48.4973541,16.0448527 49.5711778,20.1324603 47.7509574,21.2717316 C45.9307369,22.4110029 45.554415,22.9540621 45.0649534,22.9969943 C44.5754918,23.0399265 44.1125059,22.6221132 43.0443103,21.7965603 Z" id="Path-3" fill="#F5A623"></path>
                                <circle id="Oval-6" fill="url(#linearGradient-6)" cx="26.2484557" cy="14.6100027" r="13"></circle>
                                <circle id="Oval-6-Copy" stroke="#FFFFFF" stroke-width="0.6" fill="url(#linearGradient-9)" cx="28.2113091" cy="16.5" r="9.5"></circle>
                                <ellipse id="Oval-7" fill="#7AC2F7" opacity="0.402456975" transform="translate(16.628170, 58.879209) rotate(14.000000) translate(-16.628170, -58.879209) " cx="16.6281701" cy="58.8792092" rx="2.5" ry="2"></ellipse>
                                <ellipse id="Oval-7-Copy" fill="#7AC2F7" opacity="0.402456975" transform="translate(33.117146, 59.517129) rotate(14.000000) translate(-33.117146, -59.517129) " cx="33.1171465" cy="59.5171286" rx="2.5" ry="2"></ellipse>
                            </g>
                            <g id="飞船" transform="translate(148.135791, 109.588781) rotate(25.000000) translate(-148.135791, -109.588781) translate(12.135791, 52.088781)">
                                <g id="Combined-Shape">
                                    <use fill="black" fill-opacity="1" filter="url(#filter-11)" xlink:href="#path-10"></use>
                                    <use fill="#FFFFFF" fill-rule="evenodd" xlink:href="#path-10"></use>
                                </g>
                                <g id="Combined-Shape-Copy">
                                    <use fill="black" fill-opacity="1" filter="url(#filter-13)" xlink:href="#path-12"></use>
                                    <use stroke="#FFFFFF" stroke-width="2" xlink:href="#path-12"></use>
                                </g>
                                <g id="Group" transform="translate(0.000000, 56.000000)">
                                    <g id="Rectangle-4" filter="url(#filter-15)">
                                        <use fill="#D8D8D8" fill-rule="evenodd" xlink:href="#path-14"></use>
                                        <rect stroke="#0D131B" stroke-width="1" x="0.5" y="3.83333333" width="267.333333" height="1" rx="0.5"></rect>
                                    </g>
                                    <g id="Rectangle-4-Copy" filter="url(#filter-17)">
                                        <use fill="#D8D8D8" fill-rule="evenodd" xlink:href="#path-16"></use>
                                        <rect stroke="#0D131B" stroke-width="1" x="0.5" y="3.83333333" width="267.333333" height="1" rx="0.5"></rect>
                                    </g>
                                    <g id="Oval-3">
                                        <use fill="black" fill-opacity="1" filter="url(#filter-19)" xlink:href="#path-18"></use>
                                        <use fill="#FFFFFF" fill-rule="evenodd" xlink:href="#path-18"></use>
                                    </g>
                                </g>
                            </g>
                            <g id="Group-2" transform="translate(109.000000, 101.000000)" stroke="#FFFFFF" stroke-width="2" stroke-linecap="round">
                                <path d="M1.39259011,0.0428960357 L70.5,32.5" id="Line"></path>
                                <path d="M0.206248236,10.5684716 L63.6879075,39.9389372" id="Line-Copy"></path>
                                <path d="M2.66120917,22.0010396 L52.9081581,45.632038" id="Line-Copy-2"></path>
                            </g>
                        </g>
                    </g>
                </g>
            </g>
        </g>
    </g>
</svg>