<?xml version="1.0" encoding="UTF-8"?>
<svg width="60px" height="60px" viewBox="0 0 60 60" version="1.1" xmlns="http://www.w3.org/2000/svg" xmlns:xlink="http://www.w3.org/1999/xlink">
    <!-- Generator: Sketch 47.1 (45422) - http://www.bohemiancoding.com/sketch -->
    <title>Icon_zhibidizhishu</title>
    <desc>Created with Sketch.</desc>
    <defs>
        <linearGradient x1="50%" y1="97.783801%" x2="50%" y2="2.08133569%" id="linearGradient-1">
            <stop stop-color="#2BB415" offset="0%"></stop>
            <stop stop-color="#5AD946" offset="100%"></stop>
        </linearGradient>
        <rect id="path-2" x="0" y="0" width="60" height="60" rx="30"></rect>
    </defs>
    <g id="Page-1" stroke="none" stroke-width="1" fill="none" fill-rule="evenodd">
        <g id="首页_悬停" transform="translate(-835.000000, -276.000000)">
            <g id="Graph" transform="translate(157.000000, 276.000000)">
                <g id="Graph-1" transform="translate(207.000000, 0.000000)">
                    <g id="Icon_zhibidizhishu" transform="translate(471.000000, 0.000000)">
                        <g id="Base">
                            <use fill-opacity="0.400000006" fill="url(#linearGradient-1)" fill-rule="evenodd" xlink:href="#path-2"></use>
                            <rect stroke="#2BB415" stroke-width="2" x="1" y="1" width="58" height="58" rx="29"></rect>
                        </g>
                        <g id="Group-4" transform="translate(21.000000, 19.000000)">
                            <g id="定位" stroke="#FFFFFF" stroke-width="2">
                                <path d="M15.0249925,2.67086019 C13.3937615,0.96384395 11.1471083,0 8.80003983,0 C6.4528917,0 4.20634475,0.96384395 2.57500751,2.67086019 C-0.858335835,6.26246126 -0.858335835,11.9606616 2.57500751,15.5523701 L8.80003983,22 L15.0249925,15.5523701 C18.4583358,11.9606616 18.4583358,6.26246126 15.0249925,2.67086019 Z" id="Fill-3"></path>
                            </g>
                            <path d="M8,14.0056353 C6.86443221,13.9072839 5.98986164,13.5025405 5.49557522,12.8212268 C5.26327434,12.4960055 5.15486726,12.2327312 5,11.5977755 L6.2699115,11.3809613 C6.37831858,11.9539702 7.48403524,12.7520329 8.5619469,12.7520329 C10.806786,12.7520329 10.3748976,11.0699562 10.0496763,10.8686288 C9.67799491,10.6363279 9.59955752,10.4766686 8.45353982,10.2443677 C7.21460177,9.98109337 6.73451327,9.59998785 6.2079646,9.24379316 C5.6659292,8.87211174 5.37168142,8.29910289 5.37168142,7.61768697 C5.37168142,7.06016484 5.6039823,6.53361617 6.03761062,6.11547458 C6.49824468,5.66800149 7.17138415,5.39948033 8,5.32892078 L8,4 L9.60000002,4 L9.60000002,5.42823819 C10.1190654,5.54703081 10.5496303,5.75546064 10.8849558,6.05352767 C11.2876106,6.39423564 11.5044248,6.75043033 11.7057522,7.46281971 L10.3274336,7.7193229 C10.2345133,7.3011813 9.5467327,6.38040899 8.45353982,6.37846064 C7.32301001,6.37644574 6.93978174,6.73372748 6.93978174,7.55452394 C6.93978174,7.91071863 7.86099003,8.73347007 8.82116702,8.9347975 C10.3233794,9.27550547 10.7920354,9.55352767 11.2566372,9.90972236 C11.7367257,10.2968905 12,10.8853861 12,11.5203418 C12,12.7977428 11.1044006,13.6747581 9.60000002,13.9428073 L9.60000002,14.7261728 L8,14.7261728 L8,14.0056353 Z" id="s" fill="#FFFFFF"></path>
                        </g>
                    </g>
                </g>
            </g>
        </g>
    </g>
</svg>