<?xml version="1.0" encoding="UTF-8"?>
<svg width="50px" height="35px" viewBox="0 0 50 35" version="1.1" xmlns="http://www.w3.org/2000/svg" xmlns:xlink="http://www.w3.org/1999/xlink">
    <!-- Generator: Sketch 47.1 (45422) - http://www.bohemiancoding.com/sketch -->
    <title>icon_block</title>
    <desc>Created with Sketch.</desc>
    <defs>
        <radialGradient cx="82.7557995%" cy="91.546707%" fx="82.7557995%" fy="91.546707%" r="123.407139%" gradientTransform="translate(0.827558,0.915467),scale(0.746786,1.000000),rotate(-140.439391),translate(-0.827558,-0.915467)" id="radialGradient-1">
            <stop stop-color="#2BB415" offset="0%"></stop>
            <stop stop-color="#43C72E" offset="56.4675015%"></stop>
            <stop stop-color="#7DF06A" offset="100%"></stop>
        </radialGradient>
        <radialGradient cx="94.1158353%" cy="100%" fx="94.1158353%" fy="100%" r="141.266051%" gradientTransform="translate(0.941158,1.000000),scale(0.746786,1.000000),rotate(-143.187701),translate(-0.941158,-1.000000)" id="radialGradient-2">
            <stop stop-color="#2BB415" offset="0%"></stop>
            <stop stop-color="#43C72E" offset="60.5023842%"></stop>
            <stop stop-color="#7DF06A" offset="100%"></stop>
        </radialGradient>
    </defs>
    <g id="Page-1" stroke="none" stroke-width="1" fill="none" fill-rule="evenodd">
        <g id="区块详情" transform="translate(-188.000000, -140.000000)">
            <g id="hsndline" transform="translate(188.000000, 140.000000)">
                <g id="icon_block">
                    <path d="M18.7549054,34 L16.6666667,34 C14.8706187,34 13.4146341,32.5502554 13.4146341,30.7619048 L13.4146341,17.8095238 C13.4146341,16.0211732 14.8706187,14.5714286 16.6666667,14.5714286 L36.1788618,14.5714286 C37.9749098,14.5714286 39.4308943,16.0211732 39.4308943,17.8095238 L39.4308943,30.7619048 C39.4308943,32.5502554 37.9749098,34 36.1788618,34 L27.6385839,34" id="Rectangle-16-Copy-2" stroke="url(#radialGradient-1)" stroke-width="2" opacity="0.900000036" stroke-linecap="round" transform="translate(26.422764, 24.285714) scale(-1, -1) translate(-26.422764, -24.285714) "></path>
                    <rect id="Rectangle-10" fill="#45B854" opacity="0.4" x="26.8292683" y="0" width="7.31707317" height="1.21428571" rx="0.607142857"></rect>
                    <rect id="Rectangle-10-Copy-3" fill="#45B854" opacity="0.4" x="42.6829268" y="17" width="4.87804878" height="1.21428571" rx="0.607142857"></rect>
                    <rect id="Rectangle-10-Copy-8" fill="#45B854" opacity="0.4" x="0" y="32.7857143" width="7.31707317" height="1.21428571" rx="0.607142857"></rect>
                    <rect id="Rectangle-10-Copy-7" fill="#45B854" opacity="0.4" x="20.7317073" y="0" width="3.65853659" height="1.21428571" rx="0.607142857"></rect>
                    <rect id="Rectangle-10-Copy-5" fill="#45B854" x="34.1463415" y="7.28571429" width="6.09756098" height="1.21428571" rx="0.607142857"></rect>
                    <rect id="Rectangle-10-Copy-6" fill="#45B854" transform="translate(37.195122, 7.892857) scale(-1, -1) rotate(90.000000) translate(-37.195122, -7.892857) " x="34.1463415" y="7.28571429" width="6.09756098" height="1.21428571" rx="0.607142857"></rect>
                    <rect id="Rectangle-10-Copy-4" fill="#45B854" opacity="0.4" x="42.6829268" y="24.2857143" width="4.87804878" height="1.21428571" rx="0.607142857"></rect>
                    <rect id="Rectangle-10-Copy" fill="#45B854" opacity="0.4" x="2.43902439" y="29.1428571" width="7.31707317" height="1.21428571" rx="0.607142857"></rect>
                    <rect id="Rectangle-10-Copy-2" fill="#45B854" opacity="0.4" x="42.6829268" y="20.6428571" width="7.31707317" height="1.21428571" rx="0.607142857"></rect>
                    <path d="M8.99880785,24.2857143 L6.91056911,24.2857143 C5.11452114,24.2857143 3.65853659,22.8359697 3.65853659,21.047619 L3.65853659,8.0952381 C3.65853659,6.30688748 5.11452114,4.85714286 6.91056911,4.85714286 L26.4227642,4.85714286 C28.2188122,4.85714286 29.6747967,6.30688748 29.6747967,8.0952381 L29.6747967,21.047619 C29.6747967,22.8359697 28.2188122,24.2857143 26.4227642,24.2857143 L17.8824863,24.2857143" id="Rectangle-16-Copy" stroke="url(#radialGradient-2)" stroke-width="2" opacity="0.900000036" stroke-linecap="round"></path>
                </g>
            </g>
        </g>
    </g>
</svg>