<?xml version="1.0" encoding="UTF-8"?>
<svg width="54px" height="34px" viewBox="0 0 54 34" version="1.1" xmlns="http://www.w3.org/2000/svg" xmlns:xlink="http://www.w3.org/1999/xlink">
    <!-- Generator: Sketch 47.1 (45422) - http://www.bohemiancoding.com/sketch -->
    <title>icon_transactions</title>
    <desc>Created with Sketch.</desc>
    <defs>
        <radialGradient cx="77.4418953%" cy="26.0355419%" fx="77.4418953%" fy="26.0355419%" r="87.3264025%" gradientTransform="translate(0.774419,0.260355),scale(1.000000,0.823639),rotate(129.889428),translate(-0.774419,-0.260355)" id="radialGradient-1">
            <stop stop-color="#1991EB" offset="0%"></stop>
            <stop stop-color="#2EA2F8" offset="60.5023842%"></stop>
            <stop stop-color="#62BBFD" offset="100%"></stop>
        </radialGradient>
    </defs>
    <g id="Page-1" stroke="none" stroke-width="1" fill="none" fill-rule="evenodd">
        <g id="交易详情" transform="translate(-188.000000, -141.000000)">
            <g id="icon_transactions" transform="translate(188.000000, 141.000000)">
                <rect id="Rectangle-10-Copy-3" fill="#2EA2F8" opacity="0.4" x="43.9534884" y="15.0697674" width="7.53488372" height="1.25581395" rx="0.627906977"></rect>
                <rect id="Rectangle-10-Copy-9" fill="#2EA2F8" opacity="0.4" x="42.6976744" y="11.3023256" width="3.76744186" height="1.25581395" rx="0.627906977"></rect>
                <rect id="Rectangle-10-Copy-10" fill="#2EA2F8" opacity="0.4" x="42.6976744" y="26.372093" width="3.76744186" height="1.25581395" rx="0.627906977"></rect>
                <rect id="Rectangle-10-Copy-8" fill="#2EA2F8" opacity="0.4" x="0" y="31.3953488" width="7.53488372" height="1.25581395" rx="0.627906977"></rect>
                <rect id="Rectangle-10-Copy-7" fill="#2EA2F8" opacity="0.4" x="30.24" y="0" width="3.76744186" height="1.25581395" rx="0.627906977"></rect>
                <rect id="Rectangle-10-Copy-4" fill="#2EA2F8" opacity="0.4" x="43.9534884" y="22.6046512" width="7.53488372" height="1.25581395" rx="0.627906977"></rect>
                <rect id="Rectangle-10-Copy" fill="#2EA2F8" opacity="0.4" x="2.51162791" y="27.627907" width="7.53488372" height="1.25581395" rx="0.627906977"></rect>
                <rect id="Rectangle-10-Copy-2" fill="#2EA2F8" opacity="0.4" x="43.9534884" y="18.8372093" width="10.0465116" height="1.25581395" rx="0.627906977"></rect>
                <g id="Group-3" transform="translate(7.534884, 5.023256)" stroke-linecap="round" stroke-width="2" stroke="url(#radialGradient-1)" opacity="0.900000036">
                    <polygon id="Polygon-2" transform="translate(17.367560, 13.813953) rotate(-90.000000) translate(-17.367560, -13.813953) " points="17.3675601 -2.84677163 31.0899848 5.48359093 31.0899848 22.144316 17.3675601 30.4746786 3.64513538 22.144316 3.64513538 5.48359093"></polygon>
                </g>
                <g id="交易" transform="translate(16.325581, 10.046512)" fill="#2EA2F8">
                    <path d="M0.816285048,10.0465116 L15.5094558,10.0465116 C15.7258829,10.0465116 15.9335414,10.1311141 16.0865948,10.2815185 C16.2396483,10.4318837 16.3255814,10.6359872 16.3255814,10.8486684 C16.3221536,11.095308 16.2018233,11.3263198 16.0001834,11.4733557 C15.9805734,11.4989323 15.9707684,11.5288957 15.9458574,11.5535322 L11.3289045,16.0905745 C11.0100432,16.403917 10.4929696,16.403917 10.1741083,16.0905745 C9.85524694,15.7772321 9.85524694,15.2691081 10.1741083,14.9557656 L13.5383745,11.6508642 L0.816285048,11.6508642 C0.365415104,11.6508642 0,11.2917738 0,10.8486684 C0,10.4057196 0.365415104,10.0465116 0.816285048,10.0465116 Z" id="Fill-4"></path>
                    <path d="M15.5094558,6.27906977 L0.816285048,6.27906977 C0.599738336,6.27906977 0.392199457,6.19444291 0.23898658,6.04410395 C0.085933133,5.89372583 0,5.68965802 0,5.47701396 C0,5.21925646 0.131689736,5.00112987 0.323205833,4.85349301 C0.34393182,4.82796006 0.354812964,4.79584807 0.37864785,4.77227316 L4.99667688,0.234965814 C5.31553823,-0.078321938 5.83261176,-0.078321938 6.15147311,0.234965814 C6.47033445,0.54841021 6.47033445,1.05624966 6.15147311,1.36953741 L2.78613074,4.67499732 L15.5094558,4.67499732 C15.9601663,4.67499732 16.3255814,5.03402508 16.3255814,5.47701396 C16.3255814,5.920042 15.9601663,6.27906977 15.5094558,6.27906977 Z" id="Path"></path>
                </g>
            </g>
        </g>
    </g>
</svg>