<?xml version="1.0" encoding="UTF-8"?>
<svg width="14px" height="14px" viewBox="0 0 14 14" version="1.1" xmlns="http://www.w3.org/2000/svg" xmlns:xlink="http://www.w3.org/1999/xlink">
    <!-- Generator: Sketch 47.1 (45422) - http://www.bohemiancoding.com/sketch -->
    <title>icon_search_n</title>
    <desc>Created with Sketch.</desc>
    <defs></defs>
    <g id="Page-1" stroke="none" stroke-width="1" fill="none" fill-rule="evenodd">
        <g id="首页_悬停" transform="translate(-1050.000000, -151.000000)" fill="#FFFFFF">
            <g id="Placeholder" transform="translate(497.000000, 135.000000)">
                <path d="M562.202458,19.0261418 C560.496569,17.3202521 557.732031,17.3202521 556.026142,19.0261418 C554.320252,20.7320314 554.320252,23.4965685 556.026142,25.2024582 C557.732031,26.9083479 560.496569,26.9083479 562.202458,25.2024582 C563.908348,23.4965685 563.908348,20.7320314 562.202458,19.0261418 M565.508548,29.7445096 L562.757986,26.9930746 C560.362927,28.783691 556.96687,28.6142376 554.791053,26.4375468 C552.402982,24.0503494 552.402982,20.179124 554.791053,17.7910532 C557.178251,15.4029823 561.050349,15.4029823 563.437547,17.7910532 C565.614238,19.9668705 565.783691,23.3629274 563.993075,25.757986 L566.74451,28.509421 C567.085163,28.8500749 567.085163,29.4029823 566.74451,29.7445096 C566.402982,30.0851635 565.850075,30.0851635 565.508548,29.7445096 Z" id="icon_search_n"></path>
            </g>
        </g>
    </g>
</svg>