<?xml version="1.0" encoding="UTF-8"?>
<svg width="30px" height="30px" viewBox="0 0 30 30" version="1.1" xmlns="http://www.w3.org/2000/svg" xmlns:xlink="http://www.w3.org/1999/xlink">
    <!-- Generator: Sketch 47.1 (45422) - http://www.bohemiancoding.com/sketch -->
    <title>icon_zhihu _s</title>
    <desc>Created with Sketch.</desc>
    <defs></defs>
    <g id="Page-1" stroke="none" stroke-width="1" fill="none" fill-rule="evenodd">
        <g id="首页_悬停" transform="translate(-1395.000000, -2208.000000)">
            <g id="Group-4" transform="translate(1395.000000, 2208.000000)">
                <g id="icon_zhihu-_s">
                    <circle id="Oval" fill="#0F88EB" cx="15" cy="15" r="15"></circle>
                    <path d="M15.36,16.0080683 C15.36,16.0080683 15.36,14.5350943 14.6733373,14.4595552 C13.9866745,14.3839903 11.8545502,14.4595552 11.8545502,14.4595552 L11.8545502,9.92764694 L15.0347582,9.92764694 C15.0347582,9.92764694 14.9986037,8.41701945 14.3842252,8.41701945 L9.21633778,8.41701945 L10.083674,6 C10.083674,6 8.78263267,6.0755649 8.31287184,6.94414863 C7.843111,7.81275814 6.36142093,12.1558573 6.36142093,12.1558573 C6.36142093,12.1558573 6.86733619,12.3824488 7.69849328,11.7405082 C8.52967504,11.0984645 8.8187871,9.96542939 8.8187871,9.96542939 L10.3366316,9.88986449 L10.372786,14.4973119 C10.372786,14.4973119 7.73464771,14.4595552 7.19257801,14.4973119 C6.65050831,14.5350943 6.36142093,16.0457476 6.36142093,16.0457476 L10.372786,16.0457476 C10.372786,16.0457476 10.0113651,18.6138711 8.99953458,20.4644116 C7.95145091,22.3149264 6,23.7877973 6,23.7877973 C6,23.7877973 7.40938121,24.3920586 8.78273138,23.5612315 C10.1559582,22.6925188 11.1678874,18.9536552 11.1678874,18.9536552 L14.3842252,23.1457535 C14.3842252,23.1457535 14.6733373,21.1442121 14.3481695,20.5777332 C13.9866745,20.0111512 12.1075078,17.7452615 12.1075078,17.7452615 L11.2763507,18.5005237 L11.8545502,16.0079651 L15.359926,16.0079651 L15.36,16.0080683 Z M16.8358361,8.16 L16.8,21.6040945 L18.0895862,21.6040945 L18.555211,23.28 L20.8119807,21.6040945 L24,21.6040945 L24,8.16 L16.8358361,8.16 Z M22.56,20.2766407 L21.0223377,20.2766407 L19.0820341,21.84 L18.6426413,20.2766407 L18.24,20.2766407 L18.24,9.6 L22.56,9.6 L22.56,20.2766407 Z" id="Fill-1" fill-opacity="0.6" fill="#FFFFFF"></path>
                </g>
            </g>
        </g>
    </g>
</svg>