<?xml version="1.0" encoding="UTF-8"?>
<svg width="30px" height="30px" viewBox="0 0 30 30" version="1.1" xmlns="http://www.w3.org/2000/svg" xmlns:xlink="http://www.w3.org/1999/xlink">
    <!-- Generator: Sketch 47.1 (45422) - http://www.bohemiancoding.com/sketch -->
    <title>icon_github_s</title>
    <desc>Created with Sketch.</desc>
    <defs></defs>
    <g id="Page-1" stroke="none" stroke-width="1" fill="none" fill-rule="evenodd">
        <g id="区块详情" transform="translate(-1395.000000, -2030.000000)">
            <g id="footer-" transform="translate(0.000000, 2010.000000)">
                <g id="icon_github_s" transform="translate(1395.000000, 20.000000)">
                    <circle id="Oval" fill="#FFFFFF" opacity="0.8" cx="15" cy="15" r="15"></circle>
                    <path d="M7,15.2038506 C7,18.8282403 9.41238618,21.901831 12.5909179,22.9862363 C12.9913401,23.0623166 13.1980409,22.8079952 13.1980409,22.5917261 C13.1980409,22.3954666 13.2203287,21.7496704 13.2173681,21.0648991 C10.9918819,21.561473 10.538168,20.0966905 10.538168,20.0966905 C10.1739131,19.1485886 9.65700705,18.8962585 9.65700705,18.8962585 C8.93145796,18.3865958 9.71648061,18.3987375 9.71648061,18.3987375 C10.5191961,18.4557552 10.9439667,19.2426873 10.9439667,19.2426873 C11.6577443,20.4971745 12.8168511,20.1336743 13.2728862,19.9244231 C13.3452208,19.3948479 13.5526559,19.032392 13.7811945,18.8281675 C12.0039747,18.6209804 10.1369879,17.9170494 10.1369879,14.7743235 C10.1369879,13.879354 10.4496327,13.1474242 10.9603332,12.5726816 C10.8773402,12.3654217 10.6039418,11.5324723 11.0375944,10.4020497 C11.0375944,10.4020497 11.7094728,10.1817981 13.2386374,11.2431583 C13.8762907,11.0618818 14.5608643,10.9707214 15.2406062,10.9677831 C15.9202534,10.9707214 16.6057508,11.0618818 17.2443988,11.2431583 C18.7717397,10.1817981 19.4425996,10.4020497 19.4425996,10.4020497 C19.8771759,11.5324723 19.604796,12.3664658 19.521803,12.5726816 C20.034351,13.1474242 20.3449588,13.879354 20.3449588,14.7743235 C20.3449588,17.9241645 18.4729034,18.6179449 16.6917755,18.8201782 C16.9788639,19.0744996 17.2345931,19.5740118 17.2345931,20.338943 C17.2345931,21.4362671 17.2259007,22.3193863 17.2259007,22.5896377 C17.2259007,22.8078981 17.3694094,23.0633608 17.7757529,22.9831037 C20.9523424,21.8969014 23,18.8232136 23,15.2018594 C23,10.6723982 19.8960604,7.04909951 14.7589438,7 C10.1369879,7.12991745 7,10.6743895 7,15.2038506 Z" id="Fill-1" fill="#25292E"></path>
                </g>
            </g>
        </g>
    </g>
</svg>