<?xml version="1.0" encoding="UTF-8"?>
<svg width="20px" height="20px" viewBox="0 0 20 20" version="1.1" xmlns="http://www.w3.org/2000/svg" xmlns:xlink="http://www.w3.org/1999/xlink">
    <!-- Generator: Sketch 47.1 (45422) - http://www.bohemiancoding.com/sketch -->
    <title>icon_ink</title>
    <desc>Created with Sketch.</desc>
    <defs>
        <polygon id="path-1" points="0 0.0490909091 19.9509091 0.0490909091 19.9509091 20 0 20"></polygon>
    </defs>
    <g id="Page-1" stroke="none" stroke-width="1" fill="none" fill-rule="evenodd">
        <g id="首页_悬停" transform="translate(-874.000000, -799.000000)">
            <g id="Group-11" transform="translate(816.000000, 750.000000)">
                <g id="Group-10" transform="translate(58.000000, 49.000000)">
                    <g id="icon_ink">
                        <path d="M13.7901212,14.3629293 C13.7901212,14.559798 13.6633535,14.7343434 13.4760808,14.7951515 C13.4298182,14.810303 13.3824444,14.8174747 13.3355758,14.8174747 C13.1928485,14.8174747 13.0550707,14.750101 12.967798,14.630202 L7.74416162,7.44343434 L7.74416162,13.9229293 L8.93789899,13.9229293 L8.93789899,14.8320202 L5.75678788,14.8320202 L5.75678788,13.9229293 L6.83507071,13.9229293 L6.83507071,6.22989899 L5.75678788,6.22989899 L5.75678788,5.32080808 L8.93789899,5.32080808 L8.93789899,6.22989899 L7.9859798,6.22989899 L10.3154747,9.43474747 L12.9589091,5.5210101 C13.0706263,5.35535354 13.2773939,5.28191919 13.4685051,5.34080808 C13.6596162,5.39929293 13.7901212,5.57565657 13.7901212,5.77535354 L13.7901212,14.3629293 Z M16.0409293,9.62181818 L17.2694141,9.62181818 C17.0337576,5.80252525 13.8531515,2.76686869 9.97547475,2.76686869 C6.09779798,2.76686869 2.91709091,5.80252525 2.68143434,9.62181818 L3.9100202,9.62181818 L3.9100202,10.5309091 L2.68143434,10.5309091 C2.91709091,14.350404 6.09779798,17.3860606 9.97547475,17.3860606 C13.8531515,17.3860606 17.0337576,14.350404 17.2694141,10.5309091 L16.0409293,10.5309091 L16.0409293,9.62181818 Z" id="Fill-1" fill="#9B9B9B"></path>
                        <polygon id="Fill-3" fill="#9B9B9B" points="12.8810303 12.9644646 12.8810303 7.26042424 10.8839596 10.2170909"></polygon>
                        <g id="Group-7" transform="translate(0.000000, 0.051919)">
                            <mask id="mask-2" fill="white">
                                <use xlink:href="#path-1"></use>
                            </mask>
                            <g id="Clip-6"></g>
                            <path d="M9.97550505,18.243202 C5.44368687,18.243202 1.75681818,14.5563333 1.75681818,10.0245152 C1.75681818,5.49279798 5.44368687,1.80592929 9.97550505,1.80592929 C14.5072222,1.80592929 18.1940909,5.49279798 18.1940909,10.0245152 C18.1940909,14.5563333 14.5072222,18.243202 9.97550505,18.243202 M9.97550505,0.0490606061 C4.46621212,0.0490606061 -5.05050505e-05,4.51522222 -5.05050505e-05,10.0245152 C-5.05050505e-05,15.5338081 4.46621212,20.0000707 9.97550505,20.0000707 C15.484798,20.0000707 19.9509596,15.5338081 19.9509596,10.0245152 C19.9509596,4.51522222 15.484798,0.0490606061 9.97550505,0.0490606061" id="Fill-5" fill="#9B9B9B" mask="url(#mask-2)"></path>
                        </g>
                    </g>
                </g>
            </g>
        </g>
    </g>
</svg>