<?xml version="1.0" encoding="UTF-8"?>
<svg width="226px" height="200px" viewBox="0 0 226 200" version="1.1" xmlns="http://www.w3.org/2000/svg" xmlns:xlink="http://www.w3.org/1999/xlink">
    <!-- Generator: Sketch 47.1 (45422) - http://www.bohemiancoding.com/sketch -->
    <title>img_nothing</title>
    <desc>Created with Sketch.</desc>
    <defs>
        <rect id="path-1" x="0" y="5" width="12" height="2" rx="1"></rect>
        <rect id="path-2" x="0" y="5" width="12" height="2" rx="1"></rect>
        <rect id="path-3" x="0" y="4" width="9" height="2" rx="1"></rect>
        <rect id="path-4" x="0" y="4" width="9" height="2" rx="1"></rect>
        <rect id="path-5" x="0" y="4" width="9" height="2" rx="1"></rect>
        <rect id="path-6" x="0" y="4" width="9" height="2" rx="1"></rect>
    </defs>
    <g id="Page-1" stroke="none" stroke-width="1" fill="none" fill-rule="evenodd">
        <g id="结果为空" transform="translate(-677.000000, -253.000000)">
            <g id="img_nothing" transform="translate(679.000000, 253.000000)">
                <g id="icon_sousuomorenwu" transform="translate(169.000000, 141.000000)">
                    <circle id="Oval-2" stroke="#279CF4" stroke-width="3" fill-opacity="0.2" fill="#E8E9EA" opacity="0.569463315" cx="21.5" cy="21.5" r="21.5"></circle>
                    <path d="M22,7 C13.163444,7 6,14.163444 6,23" id="Oval-2-Copy" stroke="#CAD0D8" stroke-width="3" stroke-linecap="round"></path>
                    <path d="M18,31 C16.237352,31 14.540486,31.2613943 12.9519497,31.7446943 M8.33030999,34.0718674 C7.37474733,34.6057643 7.81374651,34.3005052 7,35" id="Oval-2-Copy-2" stroke="#CAD0D8" stroke-width="3" stroke-linecap="round" transform="translate(12.500000, 33.000000) rotate(-119.000000) translate(-12.500000, -33.000000) "></path>
                    <rect id="Rectangle-2" stroke="#279CF4" stroke-width="2" fill-opacity="0.2" fill="#E8E9EA" opacity="0.569463315" transform="translate(45.838835, 49.838835) rotate(45.000000) translate(-45.838835, -49.838835) " x="35.8388348" y="47.3388348" width="20" height="5" rx="2.5"></rect>
                </g>
                <path d="M198,136.27805 L198,117 C198,114.790861 196.209139,113 194,113 L119,113 C119,124.045695 110.045695,133 99,133 C87.954305,133 79,124.045695 79,113 L4,113 C1.790861,113 0,114.790861 0,117 L0,156 C0,158.209139 1.790861,160 4,160 C44.2994631,160 92.271673,160 116.152163,160 M116,160 C124.486356,160 126.911185,160 132,160 M139,160 C149.010922,160 124.107143,160 161.524574,160" id="Combined-Shape" stroke="#FFFFFF" stroke-width="3" opacity="0.900000036" stroke-linecap="round"></path>
                <path d="M3.53769546,109.488649 L40.619725,68.3300905 C40.8093385,68.1199469 41.0791243,68 41.3621677,68 C64.9140011,68 81.0892172,68 89.887816,68 C97.914826,68 104.840491,68 110.664812,68 C120.288535,68 134.72412,68 153.971567,68 C154.244261,68 154.505127,68.1113631 154.69375,68.308298 L194.032769,109.34274 C194.09388,109.406544 195.204616,109.300939 195.784591,109.488649 C196.171241,109.61379 196.746752,109.899663 197.511124,110.34627 C197.461602,109.4243 197.150221,108.298555 196.461478,107.579461 L156.860299,66.2331919 C156.105808,65.4454524 155.062342,65 153.971567,65 C134.680449,65 120.212111,65 110.566553,65 C104.80808,65 97.9714957,65 90.0568005,65 C81.2417806,65 65.0102364,65 41.3621677,65 C40.229994,65 39.1508507,65.4797877 38.3923968,66.3203619 L1.08546514,107.666631 C0.42230748,108.401591 0,109.956308 0,110.946229 C0.393919258,110.365324 0.929842458,109.963665 1.6077696,109.741252 C2.62466031,109.407632 3.37264001,109.671576 3.53769546,109.488649 Z" id="Combined-Shape-Copy" fill="#CAD0D8" fill-rule="nonzero" opacity="0.3"></path>
                <circle id="Oval-8" stroke="#FFFFFF" stroke-width="2" fill="#1B2431" cx="72.5" cy="97.5" r="4.5"></circle>
                <circle id="Oval-8-Copy-2" stroke="#FFFFFF" stroke-width="2" opacity="0.2" cx="179.5" cy="9.5" r="4.5"></circle>
                <circle id="Oval-8-Copy" stroke="#FFFFFF" stroke-width="2" opacity="0.330615942" cx="130.5" cy="92.5" r="4.5"></circle>
                <circle id="Oval-8-Copy-3" stroke="#FFFFFF" stroke-width="2" fill="#1B2431" cx="103.5" cy="66.5" r="4.5"></circle>
                <g id="Group-3" opacity="0.634850543" transform="translate(120.000000, 35.000000)">
                    <g id="Rectangle-10">
                        <use fill="#D8D8D8" fill-rule="evenodd" xlink:href="#path-1"></use>
                        <rect stroke="#979797" stroke-width="1" x="0.5" y="5.5" width="11" height="1" rx="0.5"></rect>
                    </g>
                    <g id="Rectangle-10-Copy" transform="translate(6.000000, 6.000000) rotate(90.000000) translate(-6.000000, -6.000000) ">
                        <use fill="#D8D8D8" fill-rule="evenodd" xlink:href="#path-2"></use>
                        <rect stroke="#979797" stroke-width="1" x="0.5" y="5.5" width="11" height="1" rx="0.5"></rect>
                    </g>
                </g>
                <g id="Group-3-Copy-2" transform="translate(48.000000, 85.000000)" fill="#D8D8D8">
                    <rect id="Rectangle-10" x="0" y="5" width="12" height="2" rx="1"></rect>
                    <rect id="Rectangle-10-Copy" transform="translate(6.000000, 6.000000) rotate(90.000000) translate(-6.000000, -6.000000) " x="0" y="5" width="12" height="2" rx="1"></rect>
                </g>
                <g id="Group-3-Copy" opacity="0.284646739" transform="translate(52.000000, 30.000000)">
                    <g id="Rectangle-10">
                        <use fill="#D8D8D8" fill-rule="evenodd" xlink:href="#path-3"></use>
                        <rect stroke="#979797" stroke-width="1" x="0.5" y="4.5" width="8" height="1" rx="0.5"></rect>
                    </g>
                    <g id="Rectangle-10-Copy" transform="translate(4.500000, 5.000000) rotate(90.000000) translate(-4.500000, -5.000000) ">
                        <use fill="#D8D8D8" fill-rule="evenodd" xlink:href="#path-4"></use>
                        <rect stroke="#979797" stroke-width="1" x="0.5" y="4.5" width="8" height="1" rx="0.5"></rect>
                    </g>
                </g>
                <g id="Group-3-Copy-3" opacity="0.2" transform="translate(33.000000, 0.000000)">
                    <g id="Rectangle-10">
                        <use fill="#D8D8D8" fill-rule="evenodd" xlink:href="#path-5"></use>
                        <rect stroke="#979797" stroke-width="1" x="0.5" y="4.5" width="8" height="1" rx="0.5"></rect>
                    </g>
                    <g id="Rectangle-10-Copy" transform="translate(4.500000, 5.000000) rotate(90.000000) translate(-4.500000, -5.000000) ">
                        <use fill="#D8D8D8" fill-rule="evenodd" xlink:href="#path-6"></use>
                        <rect stroke="#979797" stroke-width="1" x="0.5" y="4.5" width="8" height="1" rx="0.5"></rect>
                    </g>
                </g>
                <rect id="Rectangle-8" fill="#FFFFFF" opacity="0.2" transform="translate(54.061508, 130.913029) rotate(33.000000) translate(-54.061508, -130.913029) " x="52.5615085" y="112.913029" width="3" height="36" rx="1.5"></rect>
                <rect id="Rectangle-8-Copy-2" fill="#FFFFFF" opacity="0.1" transform="translate(67.704396, 124.203664) rotate(33.000000) translate(-67.704396, -124.203664) " x="66.2043962" y="114.203664" width="3" height="20" rx="1.5"></rect>
                <rect id="Rectangle-8-Copy" fill="#FFFFFF" opacity="0.3" transform="translate(41.873982, 134.783723) rotate(33.000000) translate(-41.873982, -134.783723) " x="40.3739817" y="111.783723" width="3" height="46" rx="1"></rect>
            </g>
        </g>
    </g>
</svg>