<?xml version="1.0" encoding="UTF-8"?>
<svg width="208px" height="39px" viewBox="0 0 208 39" version="1.1" xmlns="http://www.w3.org/2000/svg" xmlns:xlink="http://www.w3.org/1999/xlink">
    <!-- Generator: Sketch 47.1 (45422) - http://www.bohemiancoding.com/sketch -->
    <title>Page 1</title>
    <desc>Created with Sketch.</desc>
    <defs>
        <polygon id="path-1" points="0 38.0487805 207.882295 38.0487805 207.882295 0.240435911 0 0.240435911"></polygon>
    </defs>
    <g id="Page-1" stroke="none" stroke-width="1" fill="none" fill-rule="evenodd">
        <g id="首页_悬停" transform="translate(-19.000000, -16.000000)">
            <g id="Page-1" transform="translate(19.000000, 16.000000)">
                <g id="logo">
                    <path d="M64.4244834,28.1531832 L61.151942,28.1531832 L61.151942,32.7344183 L64.5157463,32.7344183 C65.3443809,32.7344183 65.9751447,32.5603653 66.4080376,32.2122595 C66.8409305,31.8641536 67.057377,31.2497063 67.057377,30.3705366 C67.057377,29.9058557 66.968537,29.5156533 66.7916647,29.1975008 C66.6147924,28.8793482 66.380578,28.6542937 66.0882137,28.5190991 C65.5519434,28.2746155 64.9970974,28.1531832 64.4244834,28.1531832 L64.4244834,28.1531832 Z M64.2783013,22.5454406 L61.151942,22.5454406 L61.151942,26.9250981 L64.4059078,26.9250981 C65.1860842,26.9250981 65.7554677,26.7389019 66.1156733,26.3665096 C66.4750714,25.9941173 66.6551742,25.4322906 66.6551742,24.68022 C66.6551742,23.928959 66.4629569,23.3849424 66.0785221,23.0489798 C65.694895,22.7130171 65.0948214,22.5454406 64.2783013,22.5454406 L64.2783013,22.5454406 Z M59.7442324,21.2987359 L64.3332205,21.2987359 C65.588287,21.2987359 66.529183,21.5586009 67.1575239,22.0783311 C67.7850571,22.5980612 68.0992275,23.4132766 68.0992275,24.5247867 C68.0992275,25.3189538 67.9619294,25.939068 67.6881408,26.3843197 C67.4135445,26.8303809 67.0081112,27.181725 66.4718409,27.4383518 C67.8125167,27.9022231 68.4828547,28.8987774 68.4828547,30.4255859 C68.4828547,31.6957675 68.1476857,32.6065096 67.4773478,33.156193 C66.8070098,33.7050669 65.8378465,33.9803134 64.5706655,33.9803134 L59.7442324,33.9803134 L59.7442324,21.2987359 Z" id="Fill-4" fill="#FFFFFF"></path>
                    <polygon id="Fill-1" fill="#FFFFFF" points="27.902439 34.2439024 30 34.2439024 30 21.5609756 27.902439 21.5609756"></polygon>
                    <polygon id="Fill-2" fill="#FFFFFF" points="32.9756098 34.2439024 32.9756098 21.5609756 36.7037727 21.5609756 40.7001732 32.4289009 40.9887833 32.4289009 40.9887833 21.5609756 43.1219512 21.5609756 43.1219512 34.2439024 39.4701851 34.2439024 35.3778641 23.3563467 35.1087777 23.3563467 35.1087777 34.2439024"></polygon>
                    <polygon id="Fill-3" fill="#FFFFFF" points="46.4138753 34.2439024 44.3902439 34.2439024 44.3902439 21.5609756 46.4138753 21.5609756 46.4138753 27.2816251 48.2732327 27.1343964 50.8259233 21.5609756 53.1402555 21.5609756 50.0593109 27.9302489 53.2682927 34.2439024 50.916113 34.2439024 48.2732327 28.9485801 46.4138753 29.078632"></polygon>
                    <mask id="mask-2" fill="white">
                        <use xlink:href="#path-1"></use>
                    </mask>
                    <g id="Clip-7"></g>
                    <polygon id="Fill-6" fill="#FFFFFF" mask="url(#mask-2)" points="70.8781417 33.9807992 72.2495078 33.9807992 72.2495078 20.8232071 70.8781417 20.8232071"></polygon>
                    <path d="M75.9967776,29.3532579 C75.9967776,30.6906321 76.1583049,31.6288988 76.4813593,32.166439 C76.8044137,32.7039792 77.4804051,32.9727494 78.5101411,32.9727494 C79.5406847,32.9727494 80.2134456,32.7072174 80.5308466,32.1753441 C80.8474399,31.6442802 81.0057366,30.706823 81.0057366,29.3629725 C81.0057366,28.019122 80.8288643,27.0929984 80.4759273,26.5862211 C80.1221827,26.0794437 79.4671898,25.826055 78.5101411,25.826055 C77.5539,25.826055 76.8956766,26.0794437 76.5354709,26.5862211 C76.1760729,27.0929984 75.9967776,28.0158838 75.9967776,29.3532579 M74.589068,29.3807826 C74.589068,27.7074458 74.8870857,26.4979803 75.4847364,25.7523861 C76.0815794,25.0076015 77.0903169,24.6343996 78.5101411,24.6343996 C79.9299653,24.6343996 80.9354722,25.0076015 81.5274695,25.7523861 C82.1178514,26.4979803 82.4134462,27.7074458 82.4134462,29.3807826 C82.4134462,31.0549289 82.1331965,32.2708708 81.5726971,33.0277987 C81.0121977,33.7855361 79.9881151,34.1635952 78.5012571,34.1635952 C77.0143991,34.1635952 75.9903166,33.7855361 75.4298171,33.0277987 C74.8693177,32.2708708 74.589068,31.0549289 74.589068,29.3807826" id="Fill-8" fill="#FFFFFF" mask="url(#mask-2)"></path>
                    <path d="M88.0627798,24.6343186 C88.4649826,24.6343186 89.1474351,24.7079875 90.1109449,24.8537063 L90.5494913,24.9095651 L90.494572,26.0275516 C89.5197553,25.917453 88.8001515,25.8624037 88.3373761,25.8624037 C87.301179,25.8624037 86.597728,26.109316 86.2262154,26.6047597 C85.8538951,27.0993939 85.6681389,28.0158028 85.6681389,29.353177 C85.6681389,30.6905511 85.8417806,31.623151 86.1890641,32.1477385 C86.5363476,32.673945 87.2583743,32.9362387 88.3551441,32.9362387 L90.5131477,32.7710908 L90.5672593,33.9068874 C89.4341459,34.0785117 88.5869356,34.1635143 88.0264362,34.1635143 C86.6001509,34.1635143 85.6156425,33.7967888 85.0737187,33.0641474 C84.5309873,32.331506 84.2604292,31.0937063 84.2604292,29.353177 C84.2604292,27.6126476 84.5527934,26.3910389 85.137522,25.6883508 C85.7230581,24.9864722 86.6978748,24.6343186 88.0627798,24.6343186" id="Fill-9" fill="#FFFFFF" mask="url(#mask-2)"></path>
                    <polygon id="Fill-10" fill="#FFFFFF" mask="url(#mask-2)" points="93.9859828 33.9804754 92.6154243 33.9804754 92.6154243 20.8228832 93.9859828 20.8228832 93.9859828 28.5929299 95.4130757 28.519261 98.026586 24.8180052 99.5812855 24.8180052 96.6003007 29.0325148 99.708892 33.9804754 98.1541925 33.9804754 95.4308437 29.7287265 93.9859828 29.7837758"></polygon>
                    <path d="M104.553901,24.6343186 C104.956104,24.6343186 105.638556,24.7079875 106.601258,24.8537063 L107.039805,24.9095651 L106.985693,26.0275516 C106.010069,25.917453 105.290465,25.8624037 104.827689,25.8624037 C103.7923,25.8624037 103.088041,26.109316 102.716529,26.6047597 C102.344208,27.0993939 102.158452,28.0158028 102.158452,29.353177 C102.158452,30.6905511 102.332094,31.623151 102.680185,32.1477385 C103.026661,32.673945 103.749495,32.9362387 104.845457,32.9362387 L107.003461,32.7710908 L107.05838,33.9068874 C105.924459,34.0785117 105.077249,34.1635143 104.51675,34.1635143 C103.090464,34.1635143 102.106763,33.7967888 101.56484,33.0641474 C101.022108,32.331506 100.750743,31.0937063 100.750743,29.353177 C100.750743,27.6126476 101.043107,26.3910389 101.628643,25.6883508 C102.214179,24.9864722 103.188996,24.6343186 104.553901,24.6343186" id="Fill-11" fill="#FFFFFF" mask="url(#mask-2)"></path>
                    <path d="M110.476296,33.9804754 L109.105738,33.9804754 L109.105738,20.8228832 L110.476296,20.8228832 L110.476296,25.3304494 C111.45192,24.8665781 112.389586,24.6342377 113.291715,24.6342377 C114.510438,24.6342377 115.330997,24.9637239 115.750967,25.6243155 C116.171746,26.283288 116.381731,27.4563238 116.381731,29.1418038 L116.381731,33.9804754 L115.010365,33.9804754 L115.010365,29.1790431 C115.010365,27.9088614 114.885181,27.0385968 114.635622,26.5682491 C114.386062,26.0979014 113.858676,25.8623228 113.05427,25.8623228 C112.286209,25.8623228 111.543183,26.0031842 110.824387,26.283288 L110.476296,26.4120062 L110.476296,33.9804754 Z" id="Fill-12" fill="#FFFFFF" mask="url(#mask-2)"></path>
                    <path d="M119.745131,31.3233752 C119.745131,32.4478381 120.207907,33.0088552 121.135073,33.0088552 C121.9629,33.0088552 122.780228,32.8688033 123.584633,32.58789 L124.004604,32.4413617 L124.004604,29.417698 L121.299023,29.6743249 C120.750638,29.7228978 120.354897,29.8823788 120.110991,30.1503394 C119.866277,30.4191095 119.745131,30.8101214 119.745131,31.3233752 M125.376778,27.5848801 L125.376778,32.2762138 C125.413121,32.7279419 125.766058,32.996712 126.436396,33.0825241 L126.381477,34.164081 C125.417967,34.164081 124.693518,33.9195973 124.205706,33.4314395 C123.108936,33.9195973 122.012166,34.164081 120.915396,34.164081 C120.073839,34.164081 119.434192,33.9252641 118.995645,33.4492496 C118.556291,32.9724255 118.337422,32.288357 118.337422,31.3970441 C118.337422,30.5049216 118.562752,29.8483778 119.014221,29.426603 C119.464074,29.0056378 120.171563,28.7449632 121.135073,28.6478173 L124.004604,28.3725708 L124.004604,27.5848801 C124.004604,26.9615278 123.870537,26.5162761 123.602401,26.2466964 C123.334266,25.9779263 122.968407,25.8435413 122.505632,25.8435413 C121.530815,25.8435413 120.518847,25.9058765 119.470535,26.0273088 L118.904382,26.0815485 L118.849463,25.0372309 C120.190139,24.7684608 121.378172,24.6340758 122.414369,24.6340758 C123.450566,24.6340758 124.203283,24.8728926 124.672519,25.3489071 C125.141756,25.8257312 125.376778,26.5713254 125.376778,27.5848801" id="Fill-13" fill="#FFFFFF" mask="url(#mask-2)"></path>
                    <path d="M128.082197,33.9799896 L129.452756,33.9799896 L129.452756,24.8175195 L128.082197,24.8175195 L128.082197,33.9799896 Z M128.082197,22.7475039 L129.452756,22.7475039 L129.452756,21.1526933 L128.082197,21.1526933 L128.082197,22.7475039 Z" id="Fill-14" fill="#FFFFFF" mask="url(#mask-2)"></path>
                    <path d="M133.456854,33.9804754 L132.086295,33.9804754 L132.086295,24.8180052 L133.439086,24.8180052 L133.439086,25.4591676 C134.426017,24.9094842 135.370144,24.6342377 136.272273,24.6342377 C137.490996,24.6342377 138.311554,24.9637239 138.731525,25.6243155 C139.152303,26.283288 139.362289,27.4563238 139.362289,29.1418038 L139.362289,33.9804754 L138.009498,33.9804754 L138.009498,29.1790431 C138.009498,27.9088614 137.884315,27.0385968 137.634755,26.5682491 C137.384388,26.0979014 136.851348,25.8623228 136.034828,25.8623228 C135.64474,25.8623228 135.233653,25.9206103 134.80076,26.0363757 C134.367867,26.1529507 134.035929,26.2654779 133.804945,26.374767 L133.456854,26.5407244 L133.456854,33.9804754 Z" id="Fill-15" fill="#FFFFFF" mask="url(#mask-2)"></path>
                    <polygon id="Fill-16" fill="#FFFFFF" mask="url(#mask-2)" points="146.1621 33.9804754 146.1621 21.2988978 153.858872 21.2988978 153.858872 22.5456025 147.569809 22.5456025 147.569809 26.92526 152.762102 26.92526 152.762102 28.1533451 147.569809 28.1533451 147.569809 32.7345802 153.858872 32.7345802 153.858872 33.9804754"></polygon>
                    <polygon id="Fill-17" fill="#FFFFFF" mask="url(#mask-2)" points="155.121045 24.8176814 156.620018 24.8176814 158.850709 28.4096482 161.081399 24.8176814 162.579564 24.8176814 159.67369 29.3624868 162.561796 33.9801515 161.062016 33.9801515 158.850709 30.4068044 156.620018 33.9801515 155.121045 33.9801515 157.991384 29.3989165"></polygon>
                    <path d="M168.192312,25.8620799 C167.82726,25.8620799 167.433942,25.9236056 167.013163,26.0458474 C166.593193,26.1680893 166.260447,26.2895215 166.017348,26.4125729 L165.669257,26.5947213 L165.669257,32.770767 C166.535043,32.905152 167.193266,32.9723446 167.643927,32.9723446 C168.631666,32.9723446 169.322195,32.6922408 169.719552,32.1296046 C170.115293,31.5677779 170.313164,30.651369 170.313164,29.3811873 C170.313164,28.1101962 170.133061,27.2059305 169.773663,26.6683902 C169.414265,26.13085 168.886879,25.8620799 168.192312,25.8620799 L168.192312,25.8620799 Z M164.298698,38.0490234 L164.298698,24.8177623 L165.651489,24.8177623 L165.651489,25.4767348 C166.57704,24.9157177 167.491284,24.6339948 168.393413,24.6339948 C169.551564,24.6339948 170.39312,25.0039585 170.916468,25.7438858 C171.439817,26.4830036 171.703106,27.7005646 171.703106,29.3989974 C171.703106,31.0974302 171.394589,32.3166103 170.77917,33.0549185 C170.163752,33.7948459 169.143707,34.164 167.717422,34.164 C166.973589,34.164 166.291137,34.0968075 165.669257,33.9624224 L165.669257,38.0490234 L164.298698,38.0490234 Z" id="Fill-18" fill="#FFFFFF" mask="url(#mask-2)"></path>
                    <polygon id="Fill-19" fill="#FFFFFF" mask="url(#mask-2)" points="174.043151 33.9807992 175.414517 33.9807992 175.414517 20.8232071 174.043151 20.8232071"></polygon>
                    <path d="M179.161625,29.3532579 C179.161625,30.6906321 179.322345,31.6288988 179.646207,32.166439 C179.968454,32.7039792 180.645253,32.9727494 181.674989,32.9727494 C182.705532,32.9727494 183.378293,32.7072174 183.694886,32.1753441 C184.012287,31.6442802 184.170584,30.706823 184.170584,29.3629725 C184.170584,28.019122 183.993712,27.0929984 183.640775,26.5862211 C183.28703,26.0794437 182.632037,25.826055 181.674989,25.826055 C180.718747,25.826055 180.059716,26.0794437 179.701126,26.5862211 C179.341728,27.0929984 179.161625,28.0158838 179.161625,29.3532579 M177.753915,29.3807826 C177.753915,27.7074458 178.051933,26.4979803 178.649584,25.7523861 C179.246427,25.0076015 180.255164,24.6343996 181.674989,24.6343996 C183.094813,24.6343996 184.10032,25.0076015 184.692317,25.7523861 C185.282699,26.4979803 185.578294,27.7074458 185.578294,29.3807826 C185.578294,31.0549289 185.298044,32.2708708 184.737545,33.0277987 C184.177045,33.7855361 183.152963,34.1635952 181.666912,34.1635952 C180.179247,34.1635952 179.155164,33.7855361 178.594665,33.0277987 C178.034165,32.2708708 177.753915,31.0549289 177.753915,29.3807826" id="Fill-20" fill="#FFFFFF" mask="url(#mask-2)"></path>
                    <path d="M187.808985,33.9804754 L187.808985,24.8180052 L189.161775,24.8180052 L189.161775,26.0639004 C190.222201,25.3304494 191.337547,24.848768 192.507004,24.6164276 L192.507004,26.0088511 C191.99577,26.1068064 191.461923,26.2598111 190.907884,26.4670555 C190.353038,26.6751095 189.929837,26.8580675 189.637473,27.016739 L189.179543,27.2547462 L189.179543,33.9804754 L187.808985,33.9804754 Z" id="Fill-21" fill="#FFFFFF" mask="url(#mask-2)"></path>
                    <path d="M199.673562,28.8678526 C199.673562,27.7433897 199.493459,26.9500322 199.134061,26.4853513 C198.774663,26.0206705 198.189935,25.7891396 197.379068,25.7891396 C196.568202,25.7891396 195.959244,26.0336232 195.551388,26.5225906 C195.142724,27.0107483 194.932739,27.7927722 194.920624,28.8678526 L199.673562,28.8678526 Z M200.167028,32.844355 L200.697645,32.7893057 L200.733988,33.8708625 C199.344854,34.0659637 198.156014,34.163919 197.169083,34.163919 C195.853444,34.163919 194.920624,33.7818121 194.372239,33.0184079 C193.823854,32.2550036 193.549258,31.0665864 193.549258,29.4547753 C193.549258,26.2408677 194.8229,24.6347234 197.370184,24.6347234 C198.601022,24.6347234 199.521727,24.9795911 200.130684,25.670136 C200.739642,26.3598713 201.044928,27.4446663 201.044928,28.9220924 L200.971433,29.9672195 L194.9392,29.9672195 C194.9392,30.9807743 195.120918,31.7328448 195.486777,32.2218121 C195.853444,32.7099699 196.489861,32.9544536 197.397644,32.9544536 C198.305427,32.9544536 199.228555,32.9180239 200.167028,32.844355 L200.167028,32.844355 Z" id="Fill-22" fill="#FFFFFF" mask="url(#mask-2)"></path>
                    <path d="M203.184033,33.9804754 L203.184033,24.8180052 L204.536824,24.8180052 L204.536824,26.0639004 C205.59725,25.3304494 206.712595,24.848768 207.882052,24.6164276 L207.882052,26.0088511 C207.370819,26.1068064 206.836971,26.2598111 206.282933,26.4670555 C205.728087,26.6751095 205.304886,26.8580675 205.012521,27.016739 L204.554592,27.2547462 L204.554592,33.9804754 L203.184033,33.9804754 Z" id="Fill-23" fill="#FFFFFF" mask="url(#mask-2)"></path>
                    <polygon id="Fill-24" fill="#FFFFFF" mask="url(#mask-2)" points="26.2277392 9.75012143 -0.000242290822 30.2907961 -0.000242290822 20.7810296 26.2277392 0.240354956"></polygon>
                    <polygon id="Fill-25" fill="#2EA1F8" mask="url(#mask-2)" points="26.2277392 14.4418599 -0.000242290822 34.9825345 -0.000242290822 28.3523321 26.2277392 7.8116575"></polygon>
                </g>
            </g>
        </g>
    </g>
</svg>